<?xml version="1.0" encoding="iso-8859-1"?>
<!-- Generator: Adobe Illustrator 19.0.0, SVG Export Plug-In . SVG Version: 6.00 Build 0)  -->
<svg version="1.1" id="Layer_1" xmlns="http://www.w3.org/2000/svg" xmlns:xlink="http://www.w3.org/1999/xlink" viewBox="0 0 78 78" fill="none" stroke="none" stroke-linecap="square" stroke-miterlimit="10">
  <g>
    <g transform="scale(0.9) translate(5, 0)">
      <path stroke="#a2c4c9" stroke-width="1.0" fill="#45818e" d="M72.325,33.234v-2.947c0-5.389-3.698-9.919-8.686-11.217l-0.009-4.859c0-4.742-3.859-8.601-8.603-8.601h-0.455L14.31,18.1
        c-0.917,0.053-1.787,0.265-2.604,0.584h-0.105C5.205,18.684,0,23.889,0,30.287v28.804c0,6.397,5.204,11.603,11.601,11.603h49.123
        c6.396,0,11.601-5.205,11.601-11.603V55.26c2.323-0.899,3.979-3.151,3.979-5.789v-10.45C76.303,36.385,74.648,34.133,72.325,33.234
        z M70.303,49.47c0,0.118-0.093,0.211-0.211,0.211H53.851c-0.118,0-0.21-0.093-0.21-0.211V39.021c0-0.115,0.094-0.209,0.21-0.209
        h16.241c0.116,0,0.211,0.094,0.211,0.209V49.47z M55.398,11.637c1.261,0.18,2.232,1.266,2.232,2.579l0.008,4.469H32.679
        L55.398,11.637z M60.724,64.693H11.602c-3.093,0-5.601-2.509-5.601-5.603V30.287c0-3.095,2.508-5.603,5.601-5.603h49.122
        c3.094,0,5.601,2.508,5.601,5.603v2.525H53.851c-3.424,0-6.21,2.785-6.21,6.209V49.47c0,3.425,2.786,6.211,6.21,6.211h12.474v3.41
        C66.325,62.184,63.818,64.693,60.724,64.693z"/>
    </g>
    <g transform="scale(0.08) translate(150, 200)" fill="none" stroke="none" stroke-linecap="square" stroke-miterlimit="10">
      <g>
        <path fill="#45818e" d="m69.39317 291.00029l0 0c0 -71.57959 58.026714 -129.60631 129.6063 -129.60631l0 0c34.373734 0 67.3396 13.65491 91.64549 37.960808c24.305908 24.305897 37.960815 57.271763 37.960815 91.64549l0 0c0 71.579575 -58.02672 129.60631 -129.60631 129.60631l0 0c-71.57958 0 -129.6063 -58.026733 -129.6063 -129.60631z" fill-rule="evenodd"/>
        <path stroke="#a2c4c9" stroke-width="24.0" stroke-linejoin="round" stroke-linecap="butt" d="m69.39317 291.00029l0 0c0 -71.57959 58.026714 -129.60631 129.6063 -129.60631l0 0c34.373734 0 67.3396 13.65491 91.64549 37.960808c24.305908 24.305897 37.960815 57.271763 37.960815 91.64549l0 0c0 71.579575 -58.02672 129.60631 -129.60631 129.60631l0 0c-71.57958 0 -129.6063 -58.026733 -129.6063 -129.60631z" fill-rule="evenodd"/>
        <path fill="#000000" fill-opacity="0.0" d="m6.25586 20.000048l264.0 0l0 264.0l-264.0 0z" fill-rule="evenodd"/>
        <path fill="#ffffff" d="m181.0293 265.97504l18.75 0q4.765625 -18.671875 11.25 -28.625q6.484375 -9.96875 16.953125 -15.46875q10.46875 -5.515625 19.609375 -5.515625q5.234375 0 8.359375 2.109375q3.125 2.109375 3.125 5.859375q0 3.046875 -1.5625 5.046875q-1.5625 1.984375 -4.296875 1.984375q-2.8125 0 -9.0625 -2.8125q-6.328125 -2.734375 -9.21875 -2.734375q-5.15625 0 -8.59375 5.390625q-3.4375 5.390625 -6.40625 18.125l-4.0625 16.640625l20.859375 0l-1.328125 5.546875l-20.78125 0l-12.34375 49.765625q-3.515625 14.0625 -10.90625 24.640625q-7.375 10.59375 -17.453125 16.171875q-10.078125 5.59375 -21.09375 5.59375q-5.390625 0 -8.125 -2.421875q-2.734375 -2.421875 -2.734375 -6.015625q0 -3.28125 1.875 -5.078125q1.875 -1.796875 5.0 -1.796875q2.03125 0 4.0625 0.65625q2.03125 0.671875 4.140625 1.40625q2.109375 0.75 4.453125 1.40625q2.34375 0.671875 5.0 0.671875q4.453125 0 7.109375 -2.0q2.65625 -1.984375 4.6875 -6.4375q2.03125 -4.453125 4.140625 -12.8125l15.859375 -63.75l-18.75 0l1.484375 -5.546875z" fill-rule="evenodd"/>
      </g>
    </g>
    <g transform="scale(0.02) translate(2700, 1710)" fill="none" stroke="none" stroke-linecap="square" stroke-miterlimit="10">
      <g>
        <path fill="#45818e" d="m69.39317 291.00029l0 0c0 -71.57959 58.026714 -129.60631 129.6063 -129.60631l0 0c34.373734 0 67.3396 13.65491 91.64549 37.960808c24.305908 24.305897 37.960815 57.271763 37.960815 91.64549l0 0c0 71.579575 -58.02672 129.60631 -129.60631 129.60631l0 0c-71.57958 0 -129.6063 -58.026733 -129.6063 -129.60631z" fill-rule="evenodd"/>
        <path stroke="#a2c4c9" stroke-width="24.0" stroke-linejoin="round" stroke-linecap="butt" d="m69.39317 291.00029l0 0c0 -71.57959 58.026714 -129.60631 129.6063 -129.60631l0 0c34.373734 0 67.3396 13.65491 91.64549 37.960808c24.305908 24.305897 37.960815 57.271763 37.960815 91.64549l0 0c0 71.579575 -58.02672 129.60631 -129.60631 129.60631l0 0c-71.57958 0 -129.6063 -58.026733 -129.6063 -129.60631z" fill-rule="evenodd"/>
        <path fill="#000000" fill-opacity="0.0" d="m6.25586 20.000048l264.0 0l0 264.0l-264.0 0z" fill-rule="evenodd"/>   
      </g>
    </g>
  </g>
</svg>
